<svg xmlns="http://www.w3.org/2000/svg" xmlns:xlink="http://www.w3.org/1999/xlink" xml:space="preserve" version="1.1" x="0px" y="0px" viewBox="0 0 100 100"><path d="M65.618,56.835C79.949,50.751,90,36.55,90,20L74.648,20C74.875,16.746,75,13.409,75,10L25,10C25,13.409,25.125,16.746,25.352,20L10,20C10,36.55,20.051,50.751,34.382,56.835C37.422,62.681,41.039,66.868,45,68.798L45,80.328C36.379,81.44,30,85.342,30,90L70,90C70,85.342,63.621,81.44,55,80.328L55,68.798C58.961,66.868,62.579,62.681,65.618,56.835ZM84.644,25C83.167,35.279,77.203,44.123,68.812,49.494C71.344,42.553,73.225,34.21,74.212,25L84.644,25ZM15.356,25L25.788,25C26.776,34.21,28.657,42.553,31.188,49.494C22.797,44.123,16.833,35.279,15.356,25Z" stroke="none" fill="#f6d32d"></path></svg>
