<?xml version="1.0" standalone="no"?>
<!DOCTYPE svg PUBLIC "-//W3C//DTD SVG 20010904//EN"
 "http://www.w3.org/TR/2001/REC-SVG-20010904/DTD/svg10.dtd">
<svg version="1.0" xmlns="http://www.w3.org/2000/svg"
 width="800.000000pt" height="800.000000pt" viewBox="0 0 800.000000 800.000000"
 preserveAspectRatio="xMidYMid meet">

<g transform="translate(0.000000,800.000000) scale(0.100000,-0.100000)"
fill="#000000" stroke="none">
<path d="M3018 4477 c-7 -8 -20 -12 -30 -9 -10 2 -18 0 -18 -5 0 -6 -11 -8
-25 -5 -14 2 -25 9 -25 15 0 5 -8 3 -18 -6 -10 -10 -24 -17 -30 -17 -7 0 -12
-5 -12 -12 0 -6 -3 -8 -6 -5 -10 10 -44 -12 -44 -29 0 -8 -5 -12 -10 -9 -6 3
-17 -1 -26 -9 -14 -15 -14 -16 0 -16 9 0 16 -7 16 -15 0 -8 3 -15 8 -15 9 0
38 32 45 51 3 11 7 10 12 -5 5 -11 3 -21 -6 -27 -12 -7 -12 -9 1 -10 70 -6
150 -22 150 -30 0 -5 7 -9 15 -9 30 0 14 -19 -22 -26 -48 -9 -213 -65 -284
-97 -70 -32 -104 -65 -212 -212 -10 -14 -38 24 -32 44 2 9 7 45 10 80 3 35 8
68 11 72 11 18 -5 8 -33 -19 -15 -16 -40 -36 -55 -46 -15 -10 -26 -22 -23 -26
3 -5 1 -12 -5 -15 -6 -4 -22 -32 -36 -63 -19 -42 -24 -66 -19 -92 10 -53 55
-125 89 -144 37 -19 167 -36 288 -36 48 0 122 -5 165 -11 95 -13 287 3 349 30
42 19 174 144 206 196 34 56 20 235 -25 320 -28 53 -132 147 -204 185 -51 26
-117 37 -127 21 -11 -16 -26 -13 -20 4 8 19 -1 19 -18 2z m30 -582 c8 -16 8
-26 1 -31 -14 -8 -22 1 -25 31 -3 32 10 32 24 0z"/>
<path d="M5385 4334 c-11 -2 -45 -9 -75 -15 -114 -22 -272 -117 -327 -197 -53
-77 -98 -241 -94 -347 4 -119 111 -235 217 -235 21 0 45 -6 53 -14 42 -36 145
-59 301 -66 85 -5 182 -14 215 -20 101 -20 273 4 316 44 33 32 70 76 63 76 -3
0 4 13 14 28 29 40 43 125 26 158 -8 14 -11 30 -8 35 3 6 -6 25 -20 44 -14 18
-26 38 -26 43 0 4 -11 19 -24 31 -14 13 -22 29 -20 36 3 8 -7 17 -28 24 -24 8
-42 27 -66 66 -23 39 -40 55 -55 56 -12 0 -16 3 -9 6 17 7 15 23 -4 23 -8 0
-12 5 -9 10 3 6 0 10 -8 10 -8 0 -22 15 -32 34 -32 58 -107 114 -191 142 -75
24 -170 37 -209 28z m163 -256 c53 -17 113 -40 132 -51 72 -40 174 -132 164
-148 -2 -4 0 -10 6 -14 12 -7 53 -95 47 -101 -5 -6 -47 31 -47 42 -1 33 -125
153 -191 185 -107 53 -127 60 -219 82 -55 13 -95 28 -98 36 -7 22 90 7 206
-31z m-38 -377 c0 -11 -78 -26 -87 -17 -8 7 36 25 65 25 12 1 22 -3 22 -8z"/>
<path d="M3734 3887 c-18 -7 -47 -27 -65 -45 -19 -18 -44 -42 -55 -53 -15 -13
-23 -37 -28 -77 -4 -31 -15 -71 -26 -87 -27 -41 -25 -63 8 -76 97 -39 183 -90
230 -135 28 -29 52 -56 52 -62 0 -16 51 -102 61 -102 5 0 9 -5 9 -11 0 -6 8
-23 19 -37 10 -15 21 -40 25 -56 4 -15 17 -49 29 -75 45 -96 11 -311 -50 -311
-7 0 -13 -6 -13 -12 0 -28 -92 -108 -123 -108 -7 0 -21 -15 -30 -32 -48 -90
-64 -115 -91 -140 -16 -16 -34 -28 -40 -28 -6 0 -31 -14 -56 -30 -25 -16 -55
-30 -67 -30 -12 0 -24 -4 -27 -9 -3 -5 -22 -12 -41 -15 -20 -4 -39 -14 -42
-22 -3 -7 -11 -14 -17 -14 -39 0 -166 -156 -166 -204 0 -9 -4 -16 -10 -16 -5
0 -10 -4 -10 -10 0 -15 26 -12 40 5 7 9 18 14 23 12 11 -3 29 10 75 55 46 46
200 136 260 153 31 9 71 21 88 26 17 5 39 9 50 9 10 0 28 7 38 15 11 8 28 15
37 15 10 0 19 4 21 9 2 5 19 12 38 15 19 3 47 8 62 12 19 4 41 -1 69 -15 22
-12 38 -17 34 -11 -3 5 -1 10 4 10 6 0 11 -4 11 -9 0 -4 17 -7 37 -5 47 3 119
-36 218 -118 39 -32 76 -63 83 -69 7 -5 27 -16 45 -24 17 -8 29 -14 26 -15
-14 -1 167 -181 216 -216 30 -20 57 -46 61 -56 9 -30 29 -15 29 23 0 32 -13
78 -25 89 -3 3 -28 34 -55 69 -28 36 -73 87 -101 115 -28 28 -55 58 -60 66 -5
8 -27 24 -49 35 -53 26 -136 112 -159 164 -11 22 -23 41 -28 41 -5 0 -6 10 -3
21 5 15 3 20 -6 17 -17 -6 -47 25 -55 57 -4 15 -15 32 -25 38 -11 7 -19 17
-19 24 0 6 -8 14 -17 18 -27 8 -52 49 -59 92 -3 21 -11 58 -18 83 -18 61 -12
106 26 213 22 61 48 96 135 185 29 29 58 61 65 71 7 10 45 35 83 55 57 29 87
38 157 45 112 11 123 19 99 74 -12 29 -17 62 -15 104 1 34 -4 83 -12 110 -21
70 -86 159 -106 147 -4 -3 -21 2 -37 10 -35 18 -65 20 -246 13 -107 -5 -173
-1 -280 13 -161 22 -188 23 -231 7z"/>
<path d="M4783 1858 c4 -10 2 -18 -3 -18 -5 0 -7 -7 -4 -15 6 -16 30 -20 37
-7 3 4 -4 18 -16 32 -12 16 -18 18 -14 8z"/>
<path d="M4820 1800 c0 -5 7 -7 15 -4 8 4 15 8 15 10 0 2 -7 4 -15 4 -8 0 -15
-4 -15 -10z"/>
<path d="M4860 1785 c0 -2 10 -10 23 -16 20 -11 21 -11 8 4 -13 16 -31 23 -31
12z"/>
<path d="M4960 1700 c0 -11 7 -20 15 -20 13 0 14 4 5 20 -6 11 -13 20 -15 20
-3 0 -5 -9 -5 -20z"/>
<path d="M7980 20 c0 -5 5 -10 10 -10 6 0 10 5 10 10 0 6 -4 10 -10 10 -5 0
-10 -4 -10 -10z"/>
</g>
</svg>
